<svg width="16" height="16" viewBox="0 0 16 16" fill="none" xmlns="http://www.w3.org/2000/svg">
<path d="M1.16281 12.7862V5.94899C1.16281 5.1938 1.775 4.58155 2.53025 4.58155H2.87212C3.3025 4.58155 3.70781 4.37893 3.96606 4.03462L5.48394 2.0108C5.56137 1.90749 5.683 1.84668 5.81212 1.84668H10.1879C10.3171 1.84668 10.4386 1.90749 10.5161 2.0108L12.0339 4.03462C12.2922 4.37893 12.6975 4.58155 13.1279 4.58155H13.4697C14.225 4.58155 14.8372 5.1938 14.8372 5.94899V12.7862C14.8372 13.5414 14.225 14.1537 13.4697 14.1537H2.53025C1.775 14.1537 1.16281 13.5414 1.16281 12.7862Z" stroke="black" stroke-opacity="0.5" stroke-linecap="round" stroke-linejoin="round"/>
<path d="M8.00001 11.4185C9.51039 11.4185 10.7349 10.194 10.7349 8.68367C10.7349 7.17323 9.51039 5.94873 8.00001 5.94873C6.48957 5.94873 5.26514 7.17323 5.26514 8.68367C5.26514 10.194 6.48957 11.4185 8.00001 11.4185Z" stroke="black" stroke-opacity="0.5" stroke-linecap="round" stroke-linejoin="round"/>
</svg>
