<svg width="27" height="28" viewBox="0 0 27 28" fill="none" xmlns="http://www.w3.org/2000/svg">
<path fill-rule="evenodd" clip-rule="evenodd" d="M6.53335 11.2C6.53335 9.35159 7.54085 7.73847 9.03661 6.87986C9.02784 6.33243 9.02224 5.7 9.02224 4.97779C9.02224 3.39024 9.04937 2.23667 9.07768 1.46518C9.10506 0.718961 9.60975 0.104552 10.354 0.0437921C10.6715 0.017864 11.0556 0 11.5111 0C11.9667 0 12.3508 0.017864 12.6683 0.0437921C13.4125 0.104552 13.9172 0.718961 13.9446 1.46518C13.9729 2.23667 14 3.39024 14 4.97779C14 5.7 13.9944 6.33243 13.9857 6.87986C15.4814 7.73847 16.4889 9.35159 16.4889 11.2C16.4889 13.9492 14.2603 16.1778 11.5111 16.1778C8.76197 16.1778 6.53335 13.9492 6.53335 11.2ZM15.8634 5.91766C15.8655 5.62241 15.8667 5.30931 15.8667 4.9778C15.8667 3.36907 15.8392 2.19263 15.81 1.39677C15.8006 1.14046 15.7622 0.884628 15.6964 0.635514C20.2681 2.19325 23.5754 6.44393 23.6785 11.4765L26.0929 14.8426C26.5241 15.4439 26.4786 16.3237 25.7785 16.7518C25.248 17.0762 24.473 17.4536 23.4321 17.7287L23.0742 21.9786C22.9705 23.2102 21.8636 24.1088 20.6368 23.957L19.0692 23.7632V25.5785C19.0692 26.5159 18.4581 27.3637 17.5016 27.5416C16.3493 27.7561 14.4622 28 11.8405 28C9.2188 28 7.33172 27.7561 6.17936 27.5416C5.22288 27.3637 4.61175 26.5159 4.61175 25.5785V21.0003C1.80793 18.8584 0 15.4978 0 11.7185C0 6.84981 2.99891 2.67745 7.26552 0.906897C7.23615 1.06891 7.21829 1.23274 7.21226 1.39677C7.18307 2.19263 7.15557 3.36907 7.15557 4.9778C7.15557 5.30931 7.15675 5.62241 7.15887 5.91766C5.63915 7.17125 4.66668 9.07127 4.66668 11.2C4.66668 14.8501 7.52387 17.8329 11.1237 18.0337C13.157 19.9219 16.1147 21.1556 18.9778 21.1556C19.4933 21.1556 19.9112 20.7377 19.9112 20.2223C19.9112 19.7068 19.4933 19.2889 18.9778 19.2889C17.1599 19.2889 15.264 18.6773 13.7126 17.6828C16.4126 16.7662 18.3556 14.21 18.3556 11.2C18.3556 9.07127 17.3831 7.17125 15.8634 5.91766Z" fill="black"/>
</svg>
