<svg width="22" height="22" viewBox="0 0 22 22" fill="none" xmlns="http://www.w3.org/2000/svg">
<path fill-rule="evenodd" clip-rule="evenodd" d="M4 0C2.93913 0 1.92172 0.421427 1.17157 1.17157C0.421427 1.92172 0 2.93913 0 4V18C0 19.0609 0.421427 20.0783 1.17157 20.8284C1.92172 21.5786 2.93913 22 4 22H18C19.0609 22 20.0783 21.5786 20.8284 20.8284C21.5786 20.0783 22 19.0609 22 18V4C22 2.93913 21.5786 1.92172 20.8284 1.17157C20.0783 0.421427 19.0609 0 18 0H4ZM10.924 2.767C8.988 2.767 7.2 3.482 5.91 4.987C4.63 6.482 3.917 8.66 3.917 11.46C3.917 14.324 4.91 16.31 6.417 17.565C7.894 18.795 9.76 19.233 11.384 19.233C14.666 19.233 17.34 17.213 17.469 14.309C17.534 12.851 16.889 11.639 15.818 10.822C15.5243 10.5992 15.2079 10.4082 14.874 10.252C14.8706 10.1896 14.8666 10.1273 14.862 10.065C14.747 8.54 14.095 7.58 13.272 7.033C12.6755 6.64689 11.9806 6.44036 11.27 6.438C10.126 6.438 9.127 6.913 8.321 7.838C8.24556 7.92467 8.18792 8.02536 8.15139 8.1343C8.11485 8.24325 8.10014 8.35832 8.10808 8.47296C8.11602 8.58759 8.14646 8.69954 8.19766 8.80241C8.24886 8.90528 8.31983 8.99706 8.4065 9.0725C8.49317 9.14794 8.59386 9.20558 8.7028 9.24211C8.81175 9.27865 8.92682 9.29336 9.04146 9.28542C9.15609 9.27748 9.26804 9.24704 9.37091 9.19584C9.47378 9.14464 9.56556 9.07367 9.641 8.987C10.141 8.413 10.671 8.188 11.271 8.188C11.484 8.188 11.923 8.238 12.304 8.491C12.581 8.675 12.902 9.013 13.049 9.708C12.6333 9.64476 12.2134 9.61333 11.793 9.614C10.303 9.614 9.256 9.993 8.606 10.689C7.958 11.382 7.864 12.22 7.897 12.786C7.91869 13.156 8.01805 13.5173 8.18862 13.8464C8.35919 14.1755 8.59715 14.465 8.887 14.696C9.512 15.2 10.367 15.444 11.384 15.369C12.488 15.288 13.451 14.726 14.084 13.765C14.382 13.313 14.599 12.785 14.732 12.195L14.756 12.213C15.408 12.711 15.759 13.39 15.721 14.231C15.646 15.926 14.031 17.483 11.384 17.483C10.043 17.483 8.614 17.117 7.536 16.22C6.488 15.347 5.667 13.885 5.667 11.46C5.667 8.943 6.308 7.213 7.239 6.126C8.159 5.053 9.437 4.517 10.924 4.517C12.501 4.517 13.751 4.895 14.646 5.537C15.528 6.169 16.126 7.1 16.347 8.343C16.3877 8.57148 16.5175 8.77444 16.7079 8.90721C16.8982 9.03999 17.1335 9.09171 17.362 9.051C17.5905 9.01029 17.7934 8.88048 17.9262 8.69013C18.059 8.49978 18.1107 8.26448 18.07 8.036C17.773 6.372 16.94 5.029 15.666 4.115C14.404 3.21 12.77 2.767 10.924 2.767ZM11.793 11.364C12.257 11.364 12.689 11.409 13.083 11.492C13.001 12.05 12.833 12.484 12.623 12.802C12.284 13.316 11.81 13.583 11.255 13.624C10.589 13.673 10.198 13.506 9.984 13.334C9.88463 13.2558 9.80295 13.1575 9.74435 13.0454C9.68574 12.9334 9.65154 12.8102 9.644 12.684C9.626 12.38 9.687 12.095 9.885 11.884C10.081 11.674 10.571 11.364 11.793 11.364Z" fill="black"/>
</svg>
