<svg width="22" height="22" viewBox="0 0 22 22" fill="none" xmlns="http://www.w3.org/2000/svg">
<path fill-rule="evenodd" clip-rule="evenodd" d="M4 0C2.93913 0 1.92172 0.421427 1.17157 1.17157C0.421427 1.92172 0 2.93913 0 4V18C0 19.0609 0.421427 20.0783 1.17157 20.8284C1.92172 21.5786 2.93913 22 4 22H18C19.0609 22 20.0783 21.5786 20.8284 20.8284C21.5786 20.0783 22 19.0609 22 18V4C22 2.93913 21.5786 1.92172 20.8284 1.17157C20.0783 0.421427 19.0609 0 18 0H4ZM17.476 8.421C17.573 12.403 14.358 20.466 3 16.058C4.506 16.058 6.962 15.507 7.571 14.898C6.683 14.771 4.905 14.136 4.905 12.612H6.429C6.4027 12.5986 6.37637 12.5853 6.35 12.572C5.544 12.172 3.762 11.287 3.762 9.183C4.142 9.564 4.766 9.72 5.286 9.564C4.506 8.886 2.773 6.947 4.143 4.993C5.286 6.263 8.181 8.803 10.619 8.803C10.239 7.786 10.619 5.755 12.524 4.993C14.429 4.231 15.791 4.906 16.334 5.755C16.998 5.702 17.594 5.359 18 5.126C18.089 5.075 18.169 5.029 18.238 4.993V5.068C18.24 5.613 18.243 6.364 17.458 6.898C17.84 7.184 18.238 7.298 19 6.898C19 7.542 18.399 8.17 17.476 8.421Z" fill="#0BA9ED"/>
</svg>
