<svg width="30" height="30" viewBox="0 0 30 30" fill="none" xmlns="http://www.w3.org/2000/svg">
<path d="M17.3 19.1625C17.3938 19.0724 17.4564 18.9548 17.4789 18.8267C17.5014 18.6986 17.4825 18.5666 17.425 18.45C16.662 16.8638 15.4689 15.5237 13.9816 14.5823C12.4944 13.6409 10.7727 13.1359 9.0125 13.125C6.99075 13.1291 5.02376 13.7824 3.40124 14.9886C1.77872 16.1948 0.586439 17.8902 -6.33299e-08 19.825C-0.027168 19.9181 -0.0322757 20.0163 -0.0149188 20.1118C0.00243817 20.2073 0.041783 20.2974 0.0999999 20.375C0.156793 20.4541 0.231993 20.5182 0.319106 20.5618C0.406219 20.6053 0.502626 20.627 0.6 20.625H15.6C15.682 20.626 15.7632 20.6098 15.8386 20.5775C15.9139 20.5452 15.9817 20.4975 16.0375 20.4375L17.3 19.1625Z" fill="black"/>
<path d="M2.8125 5.9375C2.8125 6.71722 2.96608 7.48931 3.26447 8.20968C3.56285 8.93005 4.00021 9.5846 4.55155 10.1359C5.1029 10.6873 5.75745 11.1246 6.47782 11.423C7.19819 11.7214 7.97028 11.875 8.75 11.875C9.52972 11.875 10.3018 11.7214 11.0222 11.423C11.7426 11.1246 12.3971 10.6873 12.9484 10.1359C13.4998 9.5846 13.9371 8.93005 14.2355 8.20968C14.5339 7.48931 14.6875 6.71722 14.6875 5.9375C14.6875 5.15778 14.5339 4.38569 14.2355 3.66532C13.9371 2.94495 13.4998 2.2904 12.9484 1.73905C12.3971 1.18771 11.7426 0.750353 11.0222 0.451965C10.3018 0.153578 9.52972 0 8.75 0C7.97028 0 7.19819 0.153578 6.47782 0.451965C5.75745 0.750353 5.1029 1.18771 4.55155 1.73905C4.00021 2.2904 3.56285 2.94495 3.26447 3.66532C2.96608 4.38569 2.8125 5.15778 2.8125 5.9375Z" fill="black"/>
<path d="M24.4125 14.7124L16.25 22.8374C16.1902 22.8936 16.1426 22.9613 16.11 23.0366C16.0774 23.1118 16.0606 23.1929 16.0606 23.2749C16.0606 23.3569 16.0774 23.4381 16.11 23.5133C16.1426 23.5886 16.1902 23.6563 16.25 23.7124L20 27.4624C20.0561 27.5222 20.1239 27.5699 20.1991 27.6025C20.2744 27.635 20.3555 27.6518 20.4375 27.6518C20.5195 27.6518 20.6006 27.635 20.6759 27.6025C20.7511 27.5699 20.8189 27.5222 20.875 27.4624L29.0125 19.3374C29.6144 18.7201 29.9486 17.8904 29.9426 17.0282C29.9365 16.1661 29.5908 15.3411 28.9803 14.7322C28.3698 14.1234 27.5439 13.7799 26.6817 13.7762C25.8195 13.7724 24.9907 14.1089 24.375 14.7124H24.4125Z" fill="black"/>
<path d="M16.0606 23.2749C16.0606 23.1929 16.0774 23.1118 16.11 23.0366C15.2496 24.2539 14.5528 24.8924 14.375 26.2499L17.5 29.3749C19.0103 29.1249 19.5248 28.4406 20.6759 27.6025C20.6006 27.635 20.5195 27.6518 20.4375 27.6518C20.3555 27.6518 20.2744 27.635 20.1991 27.6025C20.1239 27.5699 20.0561 27.5222 20 27.4624L16.25 23.7124C16.1902 23.6563 16.1426 23.5886 16.11 23.5133C16.0774 23.4381 16.0606 23.3569 16.0606 23.2749Z" fill="black"/>
<path d="M15.4875 25.5749C15.407 25.4962 15.3067 25.4406 15.1973 25.4142C15.0878 25.3878 14.9733 25.3914 14.8657 25.4247C14.7581 25.458 14.6616 25.5197 14.5862 25.6034C14.5108 25.687 14.4595 25.7895 14.4375 25.8999L13.75 29.2499C13.7295 29.3508 13.7348 29.4552 13.7654 29.5536C13.796 29.6519 13.8509 29.7409 13.925 29.8124C13.9978 29.8847 14.0869 29.9383 14.1848 29.9688C14.2828 29.9992 14.3866 30.0056 14.4875 29.9874L17.8375 29.3124C17.9486 29.2933 18.0521 29.2433 18.1361 29.1682C18.2201 29.093 18.2812 28.9957 18.3125 28.8874C18.3479 28.7795 18.3526 28.664 18.3261 28.5536C18.2996 28.4433 18.243 28.3424 18.1625 28.2624L15.4875 25.5749Z" fill="black"/>
</svg>
