<svg xmlns="http://www.w3.org/2000/svg" fill="none" viewBox="0 0 48 48" id="Cloud-Download-Sharp--Streamline-Ionic-Sharp" height="48" width="48">
  <desc>
    Cloud Download Sharp Streamline Icon: https://streamlinehq.com
  </desc>
  <path fill="#000000" d="M44.3156 17.7661c-1.4775 -0.9375 -3.3947 -1.574 -5.4928 -1.8319 -0.6234 -3.6656 -2.2706 -6.79871 -4.8065 -9.11809C31.3266 4.35518 27.7697 3.00049 24 3.00049c-3.3141 0 -6.375 1.03875 -8.8472 3 -1.876 1.49429 -3.3379 3.44447 -4.2459 5.66441 -2.87534 0.405 -5.34377 1.3697 -7.19159 2.8125C1.28438 16.3908 0 19.0842 0 22.2755c0 6.3187 5.2425 10.725 12.75 10.725h9.75v-13.5h3v13.5h11.625c6.81 0 10.875 -3.21 10.875 -8.5875 0 -2.8172 -1.2741 -5.1159 -3.6844 -6.6469Z" stroke-width="1"></path>
  <path fill="#000000" d="m22.5005 39.3206 -4.5019 -4.5393 -2.1197 2.1562L24.0005 45l8.1215 -8.0625 -2.1197 -2.1562 -4.5018 4.5393V33h-3v6.3206Z" stroke-width="1"></path>
</svg>