<svg width="30" height="30" viewBox="0 0 30 30" fill="none" xmlns="http://www.w3.org/2000/svg">
<path d="M28.98 11.325L26.145 10.38L27.48 7.70995C27.6153 7.43049 27.6606 7.11595 27.6096 6.8097C27.5584 6.50332 27.4136 6.22054 27.195 6L24 2.80498C23.7783 2.58317 23.4927 2.43636 23.1833 2.38521C22.874 2.33406 22.5562 2.38125 22.275 2.52003L19.605 3.85498L18.6599 1.02003C18.5602 0.724494 18.3708 0.467479 18.118 0.284698C17.8653 0.10179 17.5619 0.00230037 17.25 4.45025e-06H12.75C12.4356 -0.000760856 12.1287 0.0971983 11.8731 0.280234C11.6173 0.46327 11.4256 0.722071 11.325 1.02003L10.38 3.85498L7.70995 2.52003C7.43049 2.3847 7.11595 2.33942 6.8097 2.39044C6.50332 2.44146 6.22054 2.58636 6 2.80498L2.80498 6C2.58317 6.22169 2.43636 6.50727 2.38521 6.81671C2.33406 7.12615 2.38125 7.44375 2.52003 7.725L3.85498 10.395L1.02003 11.3401C0.724494 11.4398 0.467479 11.6292 0.284698 11.882C0.10179 12.1347 0.00230037 12.4381 4.45025e-06 12.75V17.25C-0.000760856 17.5644 0.0971983 17.8713 0.280234 18.1269C0.46327 18.3827 0.722071 18.5744 1.02003 18.675L3.85498 19.62L2.52003 22.29C2.3847 22.5694 2.33942 22.8841 2.39044 23.1903C2.44146 23.4966 2.58636 23.7795 2.80498 24L6 27.195C6.22169 27.4168 6.50727 27.5636 6.81671 27.6148C7.12615 27.6659 7.44375 27.6187 7.725 27.48L10.395 26.145L11.3401 28.98C11.4407 29.2779 11.6324 29.5366 11.888 29.7198C12.1438 29.9028 12.4506 30.0008 12.7649 30H17.2649C17.5793 30.0008 17.8862 29.9028 18.1418 29.7198C18.3976 29.5366 18.5893 29.2779 18.6899 28.98L19.6349 26.145L22.305 27.48C22.5826 27.6119 22.8941 27.6554 23.1973 27.6043C23.5005 27.5533 23.7807 27.4106 24 27.195L27.195 24C27.4168 23.7783 27.5636 23.4927 27.6148 23.1833C27.6659 22.874 27.6187 22.5562 27.48 22.275L26.145 19.605L28.98 18.6599C29.2755 18.5602 29.5326 18.3708 29.7154 18.118C29.8981 17.8653 29.9977 17.5619 30 17.25V12.75C30.0008 12.4356 29.9028 12.1287 29.7198 11.8731C29.5366 11.6173 29.2779 11.4256 28.98 11.325ZM27 16.17L25.2 16.77C24.7861 16.9042 24.4064 17.127 24.0871 17.4227C23.7679 17.7184 23.5167 18.08 23.3513 18.4824C23.1856 18.8848 23.1096 19.3184 23.1284 19.7532C23.1472 20.1879 23.2603 20.6133 23.4599 21L24.315 22.7099L22.665 24.3599L21 23.4599C20.6154 23.2684 20.194 23.1616 19.7644 23.1469C19.3349 23.1323 18.9074 23.2101 18.5105 23.3751C18.1136 23.54 17.7569 23.7884 17.4643 24.1032C17.1718 24.4181 16.9504 24.7922 16.815 25.2L16.215 27H13.83L13.23 25.2C13.0958 24.7861 12.873 24.4064 12.5773 24.0871C12.2816 23.7679 11.92 23.5167 11.5176 23.3513C11.1152 23.1857 10.6815 23.1096 10.2468 23.1284C9.81212 23.1472 9.38661 23.2603 9 23.4599L7.28993 24.315L5.63993 22.665L6.53993 21C6.73967 20.6133 6.85281 20.1879 6.87156 19.7532C6.89031 19.3184 6.81429 18.8848 6.64873 18.4824C6.48317 18.08 6.23214 17.7184 5.91288 17.4227C5.59362 17.127 5.21391 16.9042 4.8 16.77L3 16.17V13.83L4.8 13.23C5.21391 13.0958 5.59362 12.873 5.91288 12.5773C6.23214 12.2818 6.48329 11.92 6.64873 11.5176C6.81429 11.1152 6.89031 10.6816 6.87156 10.2468C6.85281 9.81212 6.73967 9.38661 6.54005 9L5.68495 7.33495L7.33495 5.68495L9 6.54005C9.38661 6.73967 9.81212 6.85281 10.2468 6.87156C10.6816 6.89031 11.1152 6.81441 11.5176 6.64885C11.92 6.48329 12.2818 6.23214 12.5774 5.91288C12.873 5.59362 13.0958 5.21391 13.23 4.8L13.83 3H16.17L16.77 4.8C16.9042 5.21391 17.127 5.59362 17.4227 5.91288C17.7184 6.23214 18.08 6.48329 18.4824 6.64885C18.8848 6.81429 19.3185 6.89031 19.7532 6.87156C20.1879 6.85281 20.6133 6.73967 21 6.54005L22.7101 5.68495L24.3601 7.33495L23.4601 9C23.2684 9.3847 23.1616 9.806 23.1469 10.2356C23.1323 10.6651 23.2101 11.0927 23.3751 11.4895C23.5402 11.8864 23.7884 12.2431 24.1032 12.5357C24.4181 12.8282 24.7922 13.0496 25.2 13.1849L27 13.7849V16.17ZM15 9C13.8134 9 12.6533 9.35191 11.6666 10.0112C10.6798 10.6705 9.91084 11.6075 9.45676 12.704C9.00255 13.8003 8.8838 15.0066 9.11531 16.1705C9.34681 17.3344 9.91824 18.4034 10.7574 19.2426C11.5966 20.0816 12.6656 20.6532 13.8295 20.8847C14.9934 21.1162 16.1997 20.9974 17.296 20.5432C18.3923 20.0892 19.3296 19.3202 19.9889 18.3334C20.6482 17.3467 21 16.1866 21 15C21 13.4087 20.3679 11.8825 19.2426 10.7574C18.1175 9.63214 16.5913 9 15 9ZM15 18C14.4066 18 13.8267 17.8241 13.3334 17.4944C12.8401 17.1648 12.4554 16.6962 12.2283 16.1481C12.0014 15.5999 11.9418 14.9967 12.0577 14.4147C12.1735 13.8329 12.4592 13.2982 12.8787 12.8787C13.2982 12.4592 13.8329 12.1733 14.4147 12.0577C14.9967 11.9418 15.5999 12.0014 16.1481 12.2283C16.6962 12.4554 17.1648 12.8401 17.4944 13.3334C17.8241 13.8267 18 14.4066 18 15C18 15.7957 17.6839 16.5587 17.1213 17.1213C16.5587 17.6839 15.7957 18 15 18Z" fill="black"/>
</svg>
