<svg width="22" height="22" viewBox="0 0 22 22" fill="none" xmlns="http://www.w3.org/2000/svg">
<path fill-rule="evenodd" clip-rule="evenodd" d="M4 0C2.93913 0 1.92172 0.421427 1.17157 1.17157C0.421427 1.92172 0 2.93913 0 4V18C0 19.0609 0.421427 20.0783 1.17157 20.8284C1.92172 21.5786 2.93913 22 4 22H18C19.0609 22 20.0783 21.5786 20.8284 20.8284C21.5786 20.0783 22 19.0609 22 18V4C22 2.93913 21.5786 1.92172 20.8284 1.17157C20.0783 0.421427 19.0609 0 18 0H4ZM14.38 5.74L12.145 5.243L11.626 8.353C13.176 8.448 14.593 8.893 15.691 9.588C15.8945 9.39254 16.1379 9.24342 16.4044 9.15087C16.671 9.05833 16.9544 9.02455 17.2353 9.05186C17.5161 9.07917 17.7877 9.16691 18.0314 9.30908C18.2752 9.45124 18.4853 9.64445 18.6473 9.87546C18.8093 10.1065 18.9195 10.3698 18.9702 10.6474C19.0208 10.9249 19.0109 11.2102 18.9409 11.4836C18.871 11.7569 18.7427 12.0119 18.5649 12.231C18.3872 12.4501 18.1641 12.6282 17.911 12.753C17.926 12.878 17.933 13.005 17.933 13.133C17.933 14.545 17.075 15.758 15.821 16.594C14.564 17.432 12.858 17.934 11 17.934C9.142 17.934 7.436 17.432 6.179 16.594C4.925 15.758 4.067 14.545 4.067 13.134C4.067 13.005 4.074 12.878 4.087 12.753C3.83556 12.6272 3.61421 12.4487 3.43804 12.2296C3.26187 12.0105 3.13504 11.7559 3.06618 11.4834C2.99733 11.2108 2.98807 10.9265 3.03905 10.6501C3.09003 10.3736 3.20005 10.1113 3.36159 9.88124C3.52314 9.65114 3.73241 9.45859 3.97513 9.31672C4.21786 9.17485 4.48833 9.087 4.76809 9.05917C5.04786 9.03134 5.33033 9.06417 5.59626 9.15543C5.86218 9.2467 6.10529 9.39424 6.309 9.588C7.448 8.867 8.929 8.415 10.546 8.343L11.185 4.513C11.1969 4.44147 11.2232 4.37311 11.2623 4.31208C11.3015 4.25105 11.3527 4.19864 11.4127 4.15803C11.4728 4.11742 11.5405 4.08947 11.6117 4.07588C11.683 4.0623 11.7562 4.06336 11.827 4.079L14.691 4.716C14.9151 4.41242 15.2392 4.19779 15.6062 4.11002C15.9731 4.02225 16.3593 4.067 16.6965 4.23636C17.0337 4.40572 17.3001 4.68878 17.4488 5.03556C17.5975 5.38234 17.6189 5.77051 17.5092 6.13152C17.3994 6.49252 17.1656 6.80312 16.8491 7.00846C16.5325 7.2138 16.1536 7.30066 15.7792 7.25369C15.4048 7.20673 15.0591 7.02897 14.803 6.75181C14.547 6.47465 14.3972 6.11692 14.38 5.74ZM8.156 13.133C8.2988 13.1374 8.44103 13.113 8.57424 13.0614C8.70746 13.0098 8.82895 12.9319 8.93151 12.8324C9.03407 12.733 9.1156 12.6139 9.17129 12.4824C9.22697 12.3508 9.25566 12.2094 9.25566 12.0665C9.25566 11.9236 9.22697 11.7822 9.17129 11.6506C9.1156 11.5191 9.03407 11.4 8.93151 11.3006C8.82895 11.2011 8.70746 11.1232 8.57424 11.0716C8.44103 11.02 8.2988 10.9956 8.156 11C7.8788 11.0085 7.6158 11.1246 7.42272 11.3237C7.22964 11.5227 7.12166 11.7892 7.12166 12.0665C7.12166 12.3438 7.22964 12.6103 7.42272 12.8093C7.6158 13.0084 7.8788 13.1245 8.156 13.133ZM13.844 13.133C13.9868 13.1374 14.129 13.113 14.2622 13.0614C14.3955 13.0098 14.5169 12.9319 14.6195 12.8324C14.7221 12.733 14.8036 12.6139 14.8593 12.4824C14.915 12.3508 14.9437 12.2094 14.9437 12.0665C14.9437 11.9236 14.915 11.7822 14.8593 11.6506C14.8036 11.5191 14.7221 11.4 14.6195 11.3006C14.5169 11.2011 14.3955 11.1232 14.2622 11.0716C14.129 11.02 13.9868 10.9956 13.844 11C13.5668 11.0085 13.3038 11.1246 13.1107 11.3237C12.9176 11.5227 12.8097 11.7892 12.8097 12.0665C12.8097 12.3438 12.9176 12.6103 13.1107 12.8093C13.3038 13.0084 13.5668 13.1245 13.844 13.133ZM8.954 14.615C8.91513 14.5568 8.86517 14.5067 8.80697 14.4678C8.74877 14.4289 8.68347 14.4018 8.6148 14.3881C8.54613 14.3744 8.47544 14.3744 8.40675 14.388C8.33807 14.4016 8.27274 14.4286 8.2145 14.4675C8.15626 14.5064 8.10624 14.5563 8.06731 14.6145C8.02838 14.6727 8.00129 14.738 7.98759 14.8067C7.9739 14.8754 7.97386 14.9461 7.98748 15.0147C8.00111 15.0834 8.02813 15.1488 8.067 15.207C8.285 15.533 8.69 15.76 9.147 15.907C9.627 16.062 10.247 16.156 11 16.156C11.753 16.156 12.373 16.062 12.852 15.908C13.31 15.76 13.715 15.533 13.932 15.207C14.0105 15.0894 14.0391 14.9454 14.0114 14.8067C13.9837 14.668 13.9021 14.546 13.7845 14.4675C13.6669 14.389 13.5229 14.3604 13.3842 14.3881C13.2455 14.4158 13.1235 14.4974 13.045 14.615C13.025 14.645 12.897 14.773 12.525 14.892C12.175 15.005 11.67 15.089 11 15.089C10.33 15.089 9.825 15.005 9.474 14.892C9.104 14.772 8.974 14.645 8.954 14.615Z" fill="#F07F0E"/>
</svg>
